<?xml version="1.0" standalone="no"?>
<!DOCTYPE svg PUBLIC "-//W3C//DTD SVG 1.1//EN" "http://www.w3.org/Graphics/SVG/1.1/DTD/svg11.dtd">
<svg width="100%" height="100%" viewBox="0 0 800 800" version="1.1" xmlns="http://www.w3.org/2000/svg" xmlns:xlink="http://www.w3.org/1999/xlink" xml:space="preserve" style="fill-rule:evenodd;clip-rule:evenodd;stroke-linejoin:round;stroke-miterlimit:1.41421;">
    <g transform="matrix(4.16667,0,0,4.16667,-0,-0)">
        <g id="Layer2">
            <path d="M95.295,118.698L93.977,115.694L40.617,115.752L17.579,166.623L11.383,166.651L69.107,32.864L127.253,169.999L142.778,169.883L120.572,118.624C120.572,118.624 155.309,118.538 161.694,118.586C192.408,118.817 193.485,47.554 161.687,47.805C155.173,47.856 87.323,48.044 87.323,48.044L106.163,94.067L109.811,94.125L92.078,51.518C92.078,51.518 158.686,51.371 161.731,51.423C190.35,51.908 186.247,115.365 161.79,115.328C158.902,115.323 115.289,115.675 115.289,115.675L137.953,167.118L130.388,166.972L69.128,25.843L6.794,169.68L20.673,169.565L42.827,118.819L95.295,118.698Z" style="fill:black;"/>
        </g>
    </g>
</svg>
